<svg width="476" height="296" viewBox="0 0 476 296" fill="none" xmlns="http://www.w3.org/2000/svg">
<path d="M79.384 19.6123C167.129 -30.6896 278.894 24.7012 294.257 124.091C299.094 154.625 293.856 186.969 278.982 214.038C285.16 199.994 289.293 185.158 291.036 170.068C304.734 53.3067 185.156 -30.719 79.384 19.6123Z" fill="#E9EFFB"/>
<path d="M206.132 262.174C181.348 262.174 160.177 253.595 142.616 236.438C125.044 219.28 116.259 198.31 116.259 173.527C116.259 152.284 122.659 133.356 135.459 116.743C148.259 100.13 165.008 89.5088 185.706 84.8789C192.515 59.8234 206.132 39.5338 226.557 24.0103C246.983 8.48675 270.132 0.724976 296.005 0.724976C327.869 0.724976 354.896 11.8202 377.087 34.0107C399.288 56.2121 410.389 83.2449 410.389 115.109C429.181 117.288 444.775 125.387 457.172 139.407C469.558 153.439 475.751 169.85 475.751 188.642C475.751 209.067 468.605 226.432 454.312 240.735C440.009 255.028 422.644 262.174 402.219 262.174H206.132Z" fill="#0B185C"/>
<path d="M195.156 250.987C173.399 250.987 154.813 243.456 139.397 228.394C123.971 213.332 116.259 194.923 116.259 173.166C116.259 154.518 121.877 137.901 133.114 123.317C144.351 108.733 159.054 99.4091 177.225 95.3447C183.202 73.3492 195.156 55.5375 213.087 41.9098C231.018 28.2821 251.34 21.4683 274.053 21.4683C302.026 21.4683 325.752 31.2085 345.233 50.6889C364.723 70.1789 374.468 93.9103 374.468 121.883C390.964 123.796 404.654 130.906 415.537 143.214C426.411 155.531 431.847 169.938 431.847 186.435C431.847 204.366 425.574 219.61 413.027 232.167C400.47 244.714 385.226 250.987 367.295 250.987H195.156Z" fill="#09256F"/>
<path d="M182.569 238.987C164.283 238.987 148.662 232.658 135.706 219.999C122.741 207.339 116.259 191.867 116.259 173.581C116.259 157.908 120.981 143.943 130.425 131.685C139.869 119.428 152.227 111.591 167.498 108.175C172.522 89.6886 182.569 74.7186 197.639 63.265C212.71 51.8114 229.79 46.0846 248.879 46.0846C272.389 46.0846 292.331 54.2709 308.703 70.6435C325.084 87.0242 333.274 106.97 333.274 130.48C347.139 132.087 358.645 138.063 367.792 148.407C376.931 158.76 381.5 170.869 381.5 184.734C381.5 199.804 376.227 212.616 365.682 223.169C355.129 233.715 342.317 238.987 327.246 238.987H182.569Z" fill="#2F368E"/>
<path d="M96.4414 200.337C48.2948 152.217 40.6669 78.9568 73.5382 22.8614C62.9532 29.0561 52.9851 36.6797 43.908 45.7517C-13.306 102.933 -13.306 195.659 43.908 252.841C101.122 310.022 193.9 310.022 251.114 252.841C260.191 243.769 267.819 233.806 274.017 223.227C217.89 256.08 144.578 248.457 96.4414 200.337Z" fill="#E9EFFB"/>
</svg>
